HIERARCHY
ROOT Hips
{
  OFFSET 0 89.5177 0.535
  CHANNELS 6 Xposition Yposition Zposition Zrotation Xrotation Yrotation
  JOINT Spine
  {
    OFFSET 12.0259 -0.162855 1.69034e-005
    CHANNELS 3 Zrotation Xrotation Yrotation
    JOINT Spine1
    {
      OFFSET 15.3169 -0.0121922 0
      CHANNELS 3 Zrotation Xrotation Yrotation
      JOINT Spine2
      {
        OFFSET 15.3176 -0.0121908 0
        CHANNELS 3 Zrotation Xrotation Yrotation
        JOINT Neck
        {
          OFFSET 19.9142 1.56338 0
          CHANNELS 3 Zrotation Xrotation Yrotation
          JOINT Head
          {
            OFFSET 6.92651 0 0
            CHANNELS 3 Zrotation Xrotation Yrotation
            End Site
            {
              OFFSET 20.7666 0 0
            }
          }
          JOINT LeftShoulder
          {
            OFFSET -6.20654 0.708824 7.28219
            CHANNELS 3 Zrotation Xrotation Yrotation
            JOINT LeftArm
            {
              OFFSET 14.108 0 -1.52588e-005
              CHANNELS 3 Zrotation Xrotation Yrotation
              JOINT LeftForeArm
              {
                OFFSET 28.5802 0 0
                CHANNELS 3 Zrotation Xrotation Yrotation
                JOINT LeftHand
                {
                  OFFSET 27.092 0 0
                  CHANNELS 3 Zrotation Xrotation Yrotation
                  End Site
                  {
                    OFFSET 9.55928 -0.186424 0.145352
                  }
                }
              }
            }
          }
          JOINT RightShoulder
          {
            OFFSET -6.20654 0.708866 -7.28218
            CHANNELS 3 Zrotation Xrotation Yrotation
            JOINT RightArm
            {
              OFFSET 14.108 0 1.52588e-005
              CHANNELS 3 Zrotation Xrotation Yrotation
              JOINT RightForeArm
              {
                OFFSET 28.5802 0 0
                CHANNELS 3 Zrotation Xrotation Yrotation
                JOINT RightHand
                {
                  OFFSET 27.092 0 0
                  CHANNELS 3 Zrotation Xrotation Yrotation
                  End Site
                  {
                    OFFSET 9.55929 -0.186417 -0.145354
                  }
                }
              }
            }
          }
        }
      }
    }
  }
  JOINT LeftUpLeg
  {
    OFFSET 0.005 -0.535 8.837
    CHANNELS 3 Zrotation Xrotation Yrotation
    JOINT LeftLeg
    {
      OFFSET 39.9035 0 0
      CHANNELS 3 Zrotation Xrotation Yrotation
      JOINT LeftFoot
      {
        OFFSET 39.6689 0 0
        CHANNELS 3 Zrotation Xrotation Yrotation
        JOINT LeftToe
        {
          OFFSET 10.1624 13.6296 0
          CHANNELS 3 Zrotation Xrotation Yrotation
          End Site
          {
            OFFSET 8.38147 0 0
          }
        }
      }
    }
  }
  JOINT RightUpLeg
  {
    OFFSET 0.005 -0.535 -8.837
    CHANNELS 3 Zrotation Xrotation Yrotation
    JOINT RightLeg
    {
      OFFSET 39.9035 0 0
      CHANNELS 3 Zrotation Xrotation Yrotation
      JOINT RightFoot
      {
        OFFSET 39.6689 0 0
        CHANNELS 3 Zrotation Xrotation Yrotation
        JOINT RightToe
        {
          OFFSET 10.1624 13.6296 0
          CHANNELS 3 Zrotation Xrotation Yrotation
          End Site
          {
            OFFSET 8.38147 0 0
          }
        }
      }
    }
  }
}
MOTION
Frames:	6
Frame Time:	0.0333333
233.45 88.0678 -170.306 -152.301 -83.5131 118.962 -1.03794 -1.07627 -0.919898 -2.09356 -2.1351 -1.85945 -2.09356 -2.1351 -1.85946 -8.30748e-012 -9.0191e-006 -5.27751e-005 17.1715 -1.46278 2.76558 -176.498 -29.1776 -82.844 -32.1706 -37.6161 0.9483 -10.7855 9.54166e-015 1.59028e-015 -25.8463 -53.9039 -29.1368 -178.305 20.7849 85.232 -32.7388 33.7469 -0.260461 -6.4756 3.18055e-015 1.59028e-015 -63.1615 68.9059 66.1529 -9.0001 17.3091 -177.339 -18.4103 -1.59028e-015 -0 16.3736 7.25193 -4.3166 90 6.21202e-016 7.95139e-016 -11.2508 -9.21064 176.668 -20.4063 -3.18056e-015 -0 15.2407 -4.02873 1.35021 90 5.4977e-021 -3.18055e-015 
233.45 88.0668 -170.286 -152.209 -83.5275 119.048 -1.03503 -1.07277 -0.920837 -2.08771 -2.12812 -1.86121 -2.08771 -2.12812 -1.86122 -8.30748e-012 -9.0191e-006 -5.27751e-005 17.1645 -1.46667 2.78026 -176.508 -29.1674 -82.8626 -32.1453 -37.6231 0.985947 -10.78 -1.59028e-014 1.59028e-015 -26.0167 -53.8625 -29.3087 -178.305 20.7726 85.2299 -32.6806 33.7873 -0.26086 -6.48524 -3.18055e-015 -0 -63.1694 68.8935 66.1615 -9.04589 17.3758 -177.309 -18.4991 0 1.59028e-015 16.4292 7.31716 -4.35341 90 3.97569e-016 -7.95139e-016 -11.246 -9.19686 176.674 -20.4174 -1.59028e-015 3.97569e-016 15.2375 -4.01792 1.34808 90 -1.13746e-021 1.59028e-015 
233.453 88.0675 -170.263 -152.335 -83.5339 118.922 -1.03361 -1.07279 -0.920829 -2.09106 -2.12814 -1.86176 -2.09106 -2.12814 -1.86177 -8.30768e-012 -9.0191e-006 -5.27751e-005 17.1366 -1.47369 2.80389 -176.503 -29.1608 -82.8508 -32.1175 -37.6366 0.978816 -10.7705 0 -1.59028e-015 -25.9556 -53.8504 -29.2436 -178.297 20.7939 85.214 -32.7018 33.6819 -0.230647 -6.48124 0 -7.95139e-016 -63.1931 68.8854 66.1853 -9.07083 17.3429 -177.318 -18.5138 0 -0 16.4188 7.314 -4.33444 90 -4.72114e-016 -7.95139e-016 -11.2614 -9.17822 176.674 -20.4244 -1.59028e-015 3.97569e-016 15.229 -3.98483 1.34585 90 -1.89576e-019 -0 
233.456 88.0678 -170.242 -152.293 -83.5479 118.965 -1.03232 -1.07284 -0.920805 -2.08926 -2.12819 -1.86234 -2.08926 -2.12819 -1.86235 -8.30788e-012 -9.0191e-006 -5.27751e-005 17.1352 -1.49773 2.86152 -176.507 -29.1361 -82.8548 -32.0609 -37.6229 0.98764 -10.782 6.36111e-015 -1.59028e-015 -25.8963 -53.842 -29.1807 -178.292 20.7922 85.1992 -32.6628 33.7199 -0.216197 -6.50458 3.18055e-015 -7.95139e-016 -63.2071 68.8877 66.1984 -9.09478 17.3618 -177.3 -18.5505 -3.18055e-015 -0 16.4419 7.34301 -4.34374 90 2.48481e-016 7.95139e-016 -11.2763 -9.20073 176.674 -20.444 -3.18056e-015 -3.97569e-016 15.2208 -4.02017 1.3377 90 1.6076e-019 -0 
233.458 88.0686 -170.216 -152.216 -83.5598 119.043 -1.03112 -1.07293 -0.920767 -2.08491 -2.12828 -1.86294 -2.08491 -2.12828 -1.86295 -8.30728e-012 -9.0191e-006 -5.27751e-005 17.1193 -1.53025 2.85542 -176.501 -29.12 -82.838 -31.9663 -37.6319 1.03716 -10.807 3.18055e-015 -0 -25.8962 -53.8445 -29.1809 -178.285 20.808 85.1823 -32.6799 33.6902 -0.197821 -6.51994 -9.54166e-015 -1.59028e-015 -63.23 68.8794 66.2215 -9.10266 17.3548 -177.293 -18.5578 -1.59028e-015 -0 16.4332 7.33926 -4.33533 90 -7.45443e-017 -1.59028e-015 -11.2788 -9.16658 176.673 -20.4534 3.18056e-015 -3.97569e-016 15.212 -3.98109 1.33161 90 -1.37101e-018 -0 
233.461 88.0696 -170.185 -152.073 -83.57 119.188 -1.02997 -1.07305 -0.920714 -2.0797 -2.12839 -1.86353 -2.0797 -2.12839 -1.86354 -8.30748e-012 -9.0191e-006 -5.27751e-005 17.1632 -1.54104 2.88957 -176.517 -29.106 -82.8671 -31.9343 -37.6313 1.09873 -10.7349 -9.54166e-015 3.18055e-015 -25.9472 -53.807 -29.2291 -178.281 20.804 85.1708 -32.6546 33.6672 -0.214362 -6.48479 1.27222e-014 1.59028e-015 -63.2082 68.8839 66.2 -9.08964 17.3121 -177.311 -18.5344 -1.59028e-015 -7.95139e-016 16.3899 7.28895 -4.28906 90 -1.49089e-016 2.38542e-015 -11.2957 -9.18192 176.673 -20.4723 0 -7.95139e-016 15.198 -3.99946 1.32845 90 2.76022e-019 3.18055e-015 
